<svg xmlns="http://www.w3.org/2000/svg" viewBox="0 0 512 512" role="img" aria-label="Nibula">
  <defs>
    <linearGradient id="nibulaShieldBorder" x1="0" y1="0" x2="1" y2="1">
      <stop offset="0" stop-color="#8b6fc4"/>
      <stop offset="0.5" stop-color="#c9a06a"/>
      <stop offset="1" stop-color="#f2c17a"/>
    </linearGradient>
    <linearGradient id="nibulaN" x1="0" y1="1" x2="1" y2="0">
      <stop offset="0" stop-color="#6d4fa8"/>
      <stop offset="0.45" stop-color="#a978b0"/>
      <stop offset="0.75" stop-color="#e7a55f"/>
      <stop offset="1" stop-color="#f7d08a"/>
    </linearGradient>
    <linearGradient id="nibulaNib" x1="0" y1="0" x2="1" y2="1">
      <stop offset="0" stop-color="#f7d89a"/>
      <stop offset="0.55" stop-color="#e0a95f"/>
      <stop offset="1" stop-color="#b07d3e"/>
    </linearGradient>
    <linearGradient id="nibulaField" x1="0" y1="0" x2="0.6" y2="1">
      <stop offset="0" stop-color="#3a2c63"/>
      <stop offset="1" stop-color="#2a2150"/>
    </linearGradient>
  </defs>

  <path fill="none" stroke="url(#nibulaShieldBorder)" stroke-width="10" stroke-linejoin="round"
        d="M256 40 L440 132 L440 320 L256 472 L72 320 L72 132 Z"/>
  <path fill="url(#nibulaField)" stroke="url(#nibulaShieldBorder)" stroke-width="6" stroke-linejoin="round"
        d="M256 66 L418 147 L418 310 L256 442 L94 310 L94 147 Z"/>

  <!-- N as one closed outline: up left post, down inner-left, diagonal to inner-bottom-right,
       up right post, cut corner, down outer-right, close along the bottom -->
  <path fill="url(#nibulaN)" stroke="#1a1533" stroke-width="7" stroke-linejoin="round"
        d="M148 362
           L148 150
           L206 150
           L312 300
           L312 150
           L370 150
           L370 205
           L340 205
           L340 362
           L282 362
           L206 255
           L206 362
           Z"/>

  <g stroke="#1a1533" stroke-width="7" stroke-linejoin="round" stroke-linecap="round">
    <path fill="url(#nibulaNib)" d="M326 300 L382 300 L392 326 L336 326 Z"/>
    <path fill="none" stroke-width="5" d="M338 313 L386 313"/>
    <path fill="url(#nibulaNib)" d="M336 326 L392 326 L428 414 L370 380 Z"/>
    <path fill="none" stroke-width="5" d="M366 342 L402 384"/>
    <circle cx="376" cy="360" r="6.5" fill="#1a1533" stroke="none"/>
  </g>
</svg>
